<svg xmlns="http://www.w3.org/2000/svg" xmlns:xlink="http://www.w3.org/1999/xlink" fill="none" version="1.1" width="14" height="14" viewBox="0 0 14 14"><defs><clipPath id="master_svg0_7_58086/7_57004"><rect x="0" y="0" width="14" height="14" rx="0"/></clipPath></defs><g clip-path="url(#master_svg0_7_58086/7_57004)"><path d="M1.18094738005,10.499941803125001L1.18094738005,5.687441803125C1.18094738005,5.046941603125,1.4084473825,4.500942003125,1.8599474425,4.047691823125C2.2893108625,3.604628023125,2.8828002625,3.358871269025,3.4996974625,3.368691787735L10.4996967625,3.368691787735C11.1401967625,3.368691787735,11.6861970625,3.595316733125,12.1394470625,4.047691823125C12.5918220625,4.500942003125,12.8184470625,5.046941603125,12.8184470625,5.687441803125L12.8184470625,10.499941803125001C12.8184470625,11.140441403125,12.5918220625,11.686441403125,12.1394470625,12.139692303125C11.7100830625,12.582754103125,11.1165943625,12.828510303125,10.4996967625,12.818692203125L3.4996974625,12.818692203125C2.8828002625,12.828512203125,2.2893110625,12.582756003125,1.8599474425,12.139692303125C1.4168837525,11.710328103125,1.1711272625,11.116838003125,1.18094738005,10.499941803125001ZM2.3184473624999997,10.499941803125001C2.3184473624999997,10.826317303125,2.4339474625,11.104566603125,2.6640723625,11.335567003125C2.8828848625,11.561299303125,3.1853623625,11.686407103125,3.4996974625,11.681191403125L10.4996967625,11.681191403125C10.8140315625,11.686407103125,11.1165094625,11.561299303125,11.3353220625,11.335567003125C11.5610540625,11.116753603125,11.6861630625,10.814276203125,11.6809470625,10.499941803125001L11.6809470625,5.687441803125C11.6861630625,5.373106703125,11.5610540625,5.070629203125,11.3353220625,4.851816803125C11.1165094625,4.6260850031250005,10.8140315625,4.500976703125,10.4996967625,4.506191803125L3.4996974625,4.506191803125C3.1853623625,4.500976203125,2.8828848625,4.6260850031250005,2.6640723625,4.851816803125C2.4383404625000002,5.070629203125,2.3132320625,5.373106703125,2.3184473624999997,5.687441803125L2.3184473624999997,10.499941803125001Z" fill="#606572" fill-opacity="1" style="mix-blend-mode:passthrough"/><path d="M2.494140625,3.93741724375C2.494140625,3.62241724375,2.555390626,3.3222924437500003,2.677015575,3.03441714375C2.794265505,2.7570420437500003,2.959640475,2.51116728375,3.173140705,2.29766708375C3.606839525,1.86102558375,4.197467725,1.61645389555,4.812890525,1.618667297364L9.187890525,1.618667297364C9.502890625,1.618667297364,9.803016225,1.67991729875,10.090890425000001,1.80154223375C10.368264725,1.91879218375,10.614140525,2.08416727375,10.827639625,2.29766732375C11.264265025,2.73166744375,11.509264925,3.3214173437500003,11.506639525,3.93741724375L10.369139624999999,3.93741724375C10.374355325,3.62308214375,10.249247024999999,3.32060484375,10.023514725,3.1017923437499997C9.804701825,2.87606024375,9.502223925,2.75095204375,9.187889625,2.75616724375L4.812889625,2.75616724375C4.498554425,2.75095204375,4.196077125,2.87606024375,3.977264525,3.1017923437499997C3.751532525,3.32060504375,3.626423925,3.62308214375,3.631639625,3.93741724375L2.494140625,3.93741724375Z" fill="#606572" fill-opacity="1" style="mix-blend-mode:passthrough"/><path d="M7.5691743250000005,6.3436523637499995C7.5691743250000005,6.02954048375,7.314536125,5.77490234375,7.000424425,5.77490234375C6.686312425000001,5.77490234375,6.431674225,6.02954048375,6.431674225,6.3436523637499995L6.431674225,8.70615244375L5.591674265,8.07615234375C5.340384665,7.88768504375,4.983891605,7.938612743749999,4.795424265,8.18990234375C4.606956936,8.441191943749999,4.657884674,8.79768494375,4.909174275,8.98615244375L6.659174325,10.298652143750001C6.861396324999999,10.45031924375,7.139451725,10.45031924375,7.341674325,10.298652143750001L9.091674325,8.98615244375C9.342963225,8.79768564375,9.393890825,8.44119234375,9.205423325,8.18990274375C9.016956324999999,7.9386131437500005,8.660463825,7.88768554375,8.409174225000001,8.07615234375L7.5691743250000005,8.70615244375L7.5691743250000005,6.3436523637499995Z" fill="#606572" fill-opacity="1" style="mix-blend-mode:passthrough"/></g></svg>