<svg xmlns="http://www.w3.org/2000/svg" xmlns:xlink="http://www.w3.org/1999/xlink" fill="none" version="1.1" width="16" height="16" viewBox="0 0 16 16"><defs><clipPath id="master_svg0_316_48357"><rect x="-0.6499999761581421" y="-0.6499999761581421" width="17.299999952316284" height="17.299999952316284" rx="6.649999499320984"/></clipPath></defs><g clip-path="url(#master_svg0_316_48357)"><path d="M6.07128903125,2.7161600625Q6.13480333125,2.7161600625,6.1970968312500005,2.7037690325Q6.25939063125,2.6913780525,6.31806993125,2.6670721725Q6.37674953125,2.6427662925,6.42955973125,2.6074796925Q6.48236993125,2.5721930225,6.52728133125,2.5272817025Q6.57219263125,2.4823703425,6.60747913125,2.4295601825Q6.64276603125,2.3767500225,6.66707133125,2.3180705025Q6.69137763125,2.2593909825,6.70376873125,2.1970971525Q6.71615983125,2.1348033105,6.71615983125,2.0712890625Q6.71615983125,2.0077748145,6.70376873125,1.9454809725Q6.69137763125,1.8831871425,6.66707133125,1.8245076225Q6.64276603125,1.7658281025,6.60747913125,1.7130179425Q6.57219263125,1.6602077825000001,6.52728133125,1.6152964225Q6.48236993125,1.5703851025,6.42955973125,1.5350984925Q6.37674953125,1.4998118925,6.31806993125,1.4755060125Q6.25939063125,1.4512001325,6.19709703125,1.4388090925Q6.13480333125,1.4264180625,6.07128903125,1.4264180625Q6.04578713125,1.4264180625,6.02036503125,1.4284318725L5.37135963125,1.4284322225000001Q3.82693433125,1.4284320424999999,2.73486081125,2.5205055225Q1.64278734125,3.6125789624999998,1.64278734125,5.1570041625L1.6427876912500001,10.5570030625Q1.6427875112499999,12.1014270625,2.73486090125,13.1935010625Q3.8269347312499997,14.2855760625,5.37135963125,14.2855760625L10.77124313125,14.2855760625Q12.31570953125,14.2855760625,13.40779153125,13.1934540625Q14.49987353125,12.1013320625,14.49981653125,10.5568656625L14.49979253125,9.908325662500001Q14.50180453125,9.8829135625,14.50180453125,9.8574218625Q14.50180353125,9.7939071625,14.48941253125,9.7316131625Q14.47702053125,9.669319162499999,14.45271453125,9.6106400625Q14.42840853125,9.5519604625,14.39312153125,9.499150762500001Q14.35783553125,9.4463405625,14.31292453125,9.401429162500001Q14.26801253125,9.356517762500001,14.21520253125,9.3212308625Q14.16239253125,9.2859444625,14.10371353125,9.261638662500001Q14.04503453125,9.2373332625,13.98274053125,9.2249421625Q13.92044653125,9.212551162499999,13.85693353125,9.212551162499999Q13.79341853125,9.212551162499999,13.73112553125,9.2249417625Q13.66883053125,9.2373332625,13.61015153125,9.261638662500001Q13.55147153125,9.2859444625,13.49866153125,9.3212313625Q13.44585053125,9.356517762500001,13.40093953125,9.401429162500001Q13.35602853125,9.4463405625,13.32074253125,9.499150262499999Q13.28545553125,9.5519599625,13.26114953125,9.610639562500001Q13.23684353125,9.669319162499999,13.22445253125,9.7316131625Q13.21206253125,9.7939071625,13.21206253125,9.8574218625Q13.21206253125,9.882931662499999,13.21407753125,9.9083618625L13.21410153125,10.5569133625Q13.21413853125,11.5688056625,12.49863853125,12.2843330625Q11.78313633125,12.9998610625,10.77124313125,12.9998610625L5.37135963125,12.9998610625Q4.35949473125,12.9998610625,3.6439985312500003,12.2843650625Q2.9285019012499998,11.5688676625,2.92850208125,10.5570030625L2.92850172125,5.1570041625Q2.92850172125,4.1451392625,3.64399813125,3.4296427625000003Q4.35949473125,2.7141464324999998,5.37135963125,2.7141466125L6.02036573125,2.7141462525Q6.045787531249999,2.7161600625,6.07128903125,2.7161600625Z" fill-rule="evenodd" fill="#606572" fill-opacity="1" style="mix-blend-mode:passthrough"/><path d="M9.519896,2.38992193Q9.6498699,2.21662329,9.6498699,2Q9.6498699,1.935993396,9.6373827,1.87321666Q9.6248956,1.81043994,9.600401399999999,1.75130555Q9.5759072,1.69217116,9.5403471,1.6389516Q9.504787,1.58573207,9.4595275,1.54047257Q9.4142679,1.49521303,9.361048199999999,1.4596529Q9.3078287,1.4240927700000001,9.2486944,1.3995984799999999Q9.189559899999999,1.37510419,9.1267833,1.36261714Q9.064006599999999,1.35013008,9,1.35013002Q8.9243331,1.35013002,8.8506904,1.36751473Q8.7770478,1.38489938,8.7093693,1.4187386Q8.6416909,1.45257783,8.5835975,1.5010612Q8.5255041,1.5495445700000001,8.48010403,1.6100780399999999L8.48000002,1.61000004L7.21999997,3.2900001000000003Q7.06896362,3.4913819999999998,7.05166617,3.7406205999999997Q7.03561583,3.9718897,7.13973701,4.1801319Q7.24385801,4.3883738999999995,7.438503534,4.5142948999999994Q7.64827313,4.6500001,7.90000004,4.6500001L14,4.6500001L14,4.6498699000000006Q14.0640068,4.6498699000000006,14.1267829,4.6373827Q14.189559899999999,4.6248956,14.2486939,4.6004012Q14.3078279,4.575907,14.3610477,4.540346899999999Q14.414267500000001,4.5047867,14.459527,4.4595272999999995Q14.5047865,4.414267499999999,14.5403466,4.3610482Q14.5759068,4.3078284,14.6004009,4.2486942Q14.6248956,4.1895599,14.637382500000001,4.1267834Q14.649869899999999,4.0640066,14.649869899999999,4Q14.649869899999999,3.9359933,14.637383,3.8732165Q14.624896,3.8104398,14.600401399999999,3.7513053000000003Q14.5759068,3.6921711,14.5403471,3.6389515Q14.5047865,3.585732,14.459527,3.5404725Q14.414267500000001,3.4952129999999997,14.3610477,3.4596527999999998Q14.3078279,3.4240927,14.2486935,3.3995984Q14.1895595,3.3751042,14.1267829,3.3626171Q14.0640068,3.3501301000000003,14,3.3501301000000003L14,3.35L8.7999998,3.35L9.52,2.38999996L9.519896,2.38992193Z" fill-rule="evenodd" fill="#606572" fill-opacity="1" style="mix-blend-mode:passthrough"/><g transform="matrix(-1,0,0,-1,29,16)"><path d="M16.519896,8.38992193Q16.6498699,8.21662329,16.6498699,8Q16.6498699,7.935993396,16.6373827,7.87321666Q16.6248956,7.81043994,16.6004014,7.75130555Q16.5759072,7.69217116,16.540347099999998,7.6389516Q16.504787,7.58573207,16.4595275,7.54047257Q16.4142679,7.49521303,16.3610482,7.4596529Q16.3078287,7.42409277,16.2486944,7.39959848Q16.1895599,7.37510419,16.1267833,7.36261714Q16.0640066,7.35013008,16,7.35013002Q15.9243331,7.35013002,15.8506904,7.36751473Q15.7770478,7.38489938,15.7093693,7.4187386Q15.6416909,7.45257783,15.5835975,7.5010612Q15.5255041,7.54954457,15.48010403,7.61007804L15.48000002,7.61000004L14.21999997,9.2900001Q14.06896362,9.491382,14.05166617,9.7406206Q14.03561583,9.9718897,14.13973701,10.1801319Q14.24385801,10.3883739,14.438503534,10.5142949Q14.64827313,10.6500001,14.90000004,10.6500001L21,10.6500001L21,10.6498699Q21.0640068,10.6498699,21.126782900000002,10.6373827Q21.1895599,10.6248956,21.2486939,10.6004012Q21.3078279,10.575907,21.3610477,10.5403469Q21.4142675,10.5047867,21.459527,10.4595273Q21.5047865,10.4142675,21.5403466,10.361048199999999Q21.5759068,10.3078284,21.6004009,10.2486942Q21.624895600000002,10.189559899999999,21.6373825,10.1267834Q21.6498699,10.064006599999999,21.6498699,10Q21.6498699,9.9359933,21.637383,9.8732165Q21.624896,9.8104398,21.6004014,9.7513053Q21.5759068,9.6921711,21.540347099999998,9.6389515Q21.5047865,9.585732,21.459527,9.5404725Q21.4142675,9.495213,21.3610477,9.4596528Q21.3078279,9.4240927,21.2486935,9.3995984Q21.1895595,9.375104199999999,21.126782900000002,9.3626171Q21.0640068,9.3501301,21,9.3501301L21,9.35L15.7999998,9.35L16.52,8.38999996L16.519896,8.38992193Z" fill-rule="evenodd" fill="#606572" fill-opacity="1" style="mix-blend-mode:passthrough"/></g></g></svg>