<svg xmlns="http://www.w3.org/2000/svg" xmlns:xlink="http://www.w3.org/1999/xlink" fill="none" version="1.1" width="12.399999976158142" height="12.399999976158142" viewBox="0 0 12.399999976158142 12.399999976158142"><path d="M-1.9209289714439137e-9,3.633333888079071L-1.9209289714439137e-9,8.766667588079072Q-1.9209289714439137e-9,10.47482798807907,0.27611347807907105,11.016787988079072Q0.6497950630790711,11.750197988079071,1.383208808079071,12.123863988079071Q1.925119888079071,12.399998988079071,3.633333888079071,12.399998988079071L8.766667588079072,12.399998988079071Q10.474838388079071,12.399998988079071,11.01677098807907,12.123882988079071Q11.75021098807907,11.75021098807907,12.12387898807907,11.016781988079071Q12.399998988079071,10.474838388079071,12.399998988079071,8.766667588079072L12.399998988079071,3.633333888079071Q12.399998988079071,1.925120088079071,12.123881988079072,1.3832439180790712Q11.750197988079071,0.649795309079071,11.01676798807907,0.27610310807907107Q10.47482798807907,-1.9209289714439137e-9,8.766667588079072,-1.9209289714439137e-9L3.633333888079071,-1.9209289714439137e-9Q1.925130588079071,-1.9209289714439137e-9,1.3832270480790712,0.27611577807907106Q0.6498083400790711,0.649808258079071,0.276117538079071,1.383223238079071Q-1.9209289714439137e-9,1.925130288079071,-1.9209289714439137e-9,3.633333888079071ZM1.523529228079071,10.381214288079072Q1.399999978079071,10.138750288079072,1.399999978079071,8.766667588079072L1.399999978079071,3.633333888079071Q1.399999978079071,2.261242888079071,1.523524818079071,2.018813588079071Q1.690703868079071,1.690703808079071,2.018809488079071,1.523526968079071Q2.261242888079071,1.399999978079071,3.633333888079071,1.399999978079071L8.766667588079072,1.399999978079071Q10.138750288079072,1.399999978079071,10.38123438807907,1.523539248079071Q10.709286988079072,1.690686168079071,10.876452988079071,2.018792688079071Q10.999999988079072,2.261252088079071,10.999999988079072,3.633333888079071L10.999999988079072,8.766667588079072Q10.999999988079072,10.138739788079072,10.876455988079071,10.381220088079072Q10.70930498807907,10.70930498807907,10.381231488079072,10.876450988079071Q10.138739788079072,10.999999988079072,8.766667588079072,10.999999988079072L3.633333888079071,10.999999988079072Q2.2612521880790712,10.999999988079072,2.018827988079071,10.87647098807907Q1.690686408079071,10.709286988079072,1.523529228079071,10.381214288079072Z" fill-rule="evenodd" fill="#2F3547" fill-opacity="1" style="mix-blend-mode:passthrough"/></svg>