<svg xmlns="http://www.w3.org/2000/svg" xmlns:xlink="http://www.w3.org/1999/xlink" fill="none" version="1.1" width="18" height="18" viewBox="0 0 18 18"><defs><clipPath id="master_svg0_24_55727"><rect x="2" y="2" width="14" height="14" rx="0"/></clipPath></defs><g clip-path="url(#master_svg0_24_55727)"><path d="M13.102237725,4.60302734375C13.416349425,4.60302734375,13.670987125,4.85766548375,13.670987125,5.1717773637499995L13.670987125,12.71865274375C13.670987125,13.35915184375,13.443487125,13.90515234375,12.991112725,14.35840224375C12.561958325,14.80124234375,11.968831524999999,15.04697934375,11.352237225,15.03740234375L6.649111725,15.03740234375C6.0322145250000005,15.04722334375,5.438725325,14.80146634375,5.009361745,14.35840224375C4.566297685,13.92903804375,4.3205411909,13.33554844375,4.33036170961,12.71865274375L4.33036170961,5.1717773637499995C4.33036170961,4.85766548375,4.584999855,4.60302734375,4.899111685,4.60302734375L13.102237725,4.60302734375ZM5.467861725,12.71865274375C5.467861725,13.04502774375,5.582486725,13.32327744375,5.813486725,13.55427744375C6.032299125,13.78000924375,6.334776625,13.90511794375,6.649111725,13.89990234375L11.352237225,13.89990234375C11.666269825,13.90487484375,11.968383825,13.77978514375,12.186987425,13.55427744375C12.413041125,13.33561514375,12.538474125,13.03311824375,12.533487325,12.71865274375L12.533487325,5.74052734375L5.467861725,5.74052734375L5.467861725,12.71865274375Z" fill="#606572" fill-opacity="1" style="mix-blend-mode:passthrough"/><path d="M7.337890625,7.90615224375C7.337890625,7.5920405437500005,7.592528825,7.33740234375,7.906640525,7.33740234375C8.220752725,7.33740234375,8.475390425,7.5920405437500005,8.475390425,7.90615224375L8.475390425,11.460402043750001C8.475390425,11.77451424375,8.220752725,12.02915194375,7.906640525,12.02915194375C7.592528825,12.02915194375,7.337890625,11.77451424375,7.337890625,11.460402043750001L7.337890625,7.90615224375ZM9.525390625,7.90615224375C9.525390625,7.5920405437500005,9.780028824999999,7.33740234375,10.094140525,7.33740234375C10.408252725,7.33740234375,10.662890425,7.5920405437500005,10.662890425,7.90615224375L10.662890425,11.460402043750001C10.662890425,11.77451424375,10.408252725,12.02915194375,10.094140525,12.02915194375C9.780028824999999,12.02915194375,9.525390625,11.77451424375,9.525390625,11.460402043750001L9.525390625,7.90615224375ZM3.531640645,4.60302734375L14.469140625,4.60302734375C14.783252625,4.60302734375,15.037890625,4.85766548375,15.037890625,5.1717773637499995C15.037890625,5.48588919375,14.783252625,5.74052734375,14.469140625,5.74052734375L3.531640645,5.74052734375C3.217528645,5.74052734375,2.962890625,5.48588919375,2.962890625,5.1717773637499995C2.962890625,4.85766548375,3.217528645,4.60302734375,3.531640645,4.60302734375Z" fill="#606572" fill-opacity="1" style="mix-blend-mode:passthrough"/><path d="M12.063499425,5.74052734375L5.938499455,5.74052734375C5.506542695,5.74037834375,5.232410115,5.27771954375,5.439749449,4.89877734375L5.964749455,3.93977731375C6.1309994450000005,3.63790232375,6.3611243349999995,3.39990234375,6.655999425,3.2249023337500002C6.951749325,3.04990234275,7.271999725,2.96240234375,7.614999324999999,2.96240234375L10.397499125,2.96240234375C10.743999025,2.96240234375,11.065999524999999,3.05165231975,11.362624624999999,3.2292773437499998C11.660124825,3.40690237375,11.891124725000001,3.64840245375,12.053874525000001,3.95377737375L12.564875125,4.90227734375C12.768875125000001,5.28139634375,12.494020425,5.74092794375,12.063499425,5.74052734375ZM10.778999825,4.20490254375C10.663911825,4.13547834375,10.531903725,4.09914584375,10.397499525,4.09990254375L7.6149997250000006,4.09990254375C7.479374925,4.09990254375,7.3524997249999995,4.13490244375,7.236124825,4.20402744375C7.121140125,4.27129944375,7.026736825,4.36872864375,6.963124725,4.48577754375L6.8992499249999995,4.60302744375L11.112374825,4.60302744375L11.052874525,4.4919023437500005C10.989799025,4.3728081437499995,10.895013325,4.27347974375,10.778999825,4.20490254375Z" fill="#606572" fill-opacity="1" style="mix-blend-mode:passthrough"/></g></svg>