<svg xmlns="http://www.w3.org/2000/svg" xmlns:xlink="http://www.w3.org/1999/xlink" fill="none" version="1.1" width="13.81218433380127" height="14" viewBox="0 0 13.81218433380127 14"><path d="M7.6353183,13.052368C7.3305197,13.052368,6.9734693,12.9409,6.7061172,12.849459C6.5769558,12.815682,6.453227,12.763786,6.3386164,12.695317C6.1644454,12.589074,6.1278691,12.581236,6.0677805,12.356555C6.3682251,12.286016,7.1833448,11.783533,7.4881434,11.599783C9.5242014,10.380587,9.1157694,11.456963,9.1157694,6.6089168C9.3212919,6.6576848,10.247881,7.0521817,10.247881,7.3926859C10.247881,9.2127714,10.529165,11.137359,9.5285559,12.245957C9.2167883,12.594299,8.2727833,13.052368,7.636189,13.052368L7.6353183,13.052368ZM1.71351,8.9593534C5.2500491,10.83082,4.234633,11.10688,6.6050982,9.6717129C7.2146964,9.2998571,7.841711,8.9976721,8.4182167,8.6110115L8.4182167,10.004378C7.1119356,10.308307,4.6944442,13.108974,2.6879964,11.381198L2.3344295,11.037211C1.824109,10.436321,1.7143813,10.04705,1.7143813,8.9602232L1.71351,8.9593534ZM6.8515501,8.6980972C6.5789728,8.5160885,5.7647238,7.9961882,5.4581833,7.9143281L5.4581833,6.0855341C5.9355359,5.8478994,6.4005842,5.5863104,6.8515501,5.3017654C7.4524393,5.441102,7.8181982,5.9453268,8.4190874,6.0855341L8.4190874,7.8272424C8.1752481,7.9927044,7.1084518,8.6301699,6.8515501,8.6989679L6.8515501,8.6980972ZM1.016827,6.2597051C1.016827,5.3888502,0.95847976,5.0248332,1.5480479,4.2663198C1.8754892,3.8439555,2.1977053,3.7246485,2.670579,3.4738426L2.670579,7.0443439C3.274081,7.3639474,3.8174942,7.7149019,4.4392838,8.0623722L6.2410812,9.1343946C5.4268322,9.352108,5.3702269,9.9730263,4.7423415,9.5959473C3.310657,8.7381554,1.0176979,7.8272419,1.0176979,6.2605758L1.016827,6.2597051ZM12.860443,8.0014133C12.860443,9.0891113,12.209917,10.205546,11.20582,10.439806L11.20582,8.1755848C11.20582,7.0434747,11.339062,7.0190907,10.537004,6.5810509L7.6353183,4.9551659C7.8512907,4.6320791,7.9444718,4.6939096,8.293684,4.4788094C8.8640938,4.1304674,8.8275175,4.2584829,9.8943148,4.8724351C11.182307,5.6135316,12.859573,6.2475138,12.859573,8.002285L12.860443,8.0014133ZM5.4581833,5.3017654L5.4581833,3.9954846C6.0564599,3.6784937,6.6982799,3.2988012,7.2817521,2.9452343C8.4051542,2.2677097,8.5880337,2.0796051,9.8115835,2.0796051C10.474303,2.0796051,11.213657,2.582088,11.529779,2.9739726C12.107155,3.6880729,12.075804,4.2410655,12.075804,5.0405092C11.650828,4.8149576,9.4449549,3.3858864,9.0278158,3.3858864C8.6106768,3.3858864,5.8875155,5.0736012,5.4573135,5.3017654L5.4581833,5.3017654ZM4.7614999,7.4789014C4.5376902,7.3291144,3.8984833,6.9320049,3.6293893,6.8693032C3.6293893,4.5676355,3.166095,2.5672836,4.5585909,1.5292252C5.3249421,0.95881569,6.1060987,0.79335344,7.0387836,1.1094735C7.3871255,1.2279097,7.5247202,1.3951136,7.8094893,1.470878C7.6483812,1.6903332,6.7061172,2.1588528,6.4108977,2.3365071C4.2973347,3.6114376,4.7614999,2.4383972,4.7614999,7.4789014ZM0.75557035,9.1335249C0.75557035,11.446513,2.3300745,12.973991,4.5063396,12.878198C5.3240719,12.841622,4.8729692,12.772824,5.4555707,13.22654C6.7932029,14.275918,8.5845499,14.234988,9.8263884,13.240473C10.103549,13.024903,10.346127,12.768229,10.545713,12.479346C11.341675,11.313272,10.395926,11.855815,11.666503,11.335916C13.447399,10.607882,14.393147,8.3636894,13.425628,6.4756775C13.050289,5.743289,12.875248,6.0811806,13.038967,5.0439935C13.294999,3.4224629,12.175081,1.8984684,10.883605,1.3550555C9.5311689,0.78638756,9.1183825,1.5292263,8.4373751,0.84125137C8.2643528,0.65976542,8.0617542,0.50899428,7.8382273,0.39537361C6.3873844,-0.37968662,4.4358001,0.02090629,3.4395428,1.2810323C2.327462,2.6892035,3.5692999,2.0290961,2.1759334,2.6299856C0.11287971,3.5191276,-0.54896945,6.0054159,0.4742842,7.6722312C1.2510862,8.9384527,0.75557011,7.7401576,0.75557011,9.1326542L0.75557035,9.1335249Z" fill="#10A37F" fill-opacity="1" style="mix-blend-mode:passthrough"/></svg>